<svg xmlns="http://www.w3.org/2000/svg" width="158.81" height="154.84" viewBox="0 0 158.81 154.84"><path d="M130.688,154.84H28.122A28.1,28.1,0,0,1,0,126.718v-98.6A28.1,28.1,0,0,1,28.122,0H130.688A28.1,28.1,0,0,1,158.81,28.122v98.6A28.1,28.1,0,0,1,130.688,154.84Z" fill="#ff26be"/><path d="M225.754,245.8H128.218A24.061,24.061,0,0,1,104.2,221.783V128.218A24.061,24.061,0,0,1,128.218,104.2H225.69a24.016,24.016,0,0,1,24.018,24.018v93.5A23.98,23.98,0,0,1,225.754,245.8Z" transform="translate(-97.581 -97.581)" fill="#2e001f"/><path d="M499.837,627.6l18.53,35.6c.33.527.133,1.061-.4,1.061H506.45a1.3,1.3,0,0,1-1.391-.858c-4.237-8.735-8.538-17.469-12.972-26.864h-.133c-3.97,8.868-8.341,18.2-12.571,26.934a1.277,1.277,0,0,1-1.194.731H467.281c-.661,0-.731-.527-.394-.927l18.13-34.544-17.533-34.938a.535.535,0,0,1,.394-.927h11.384c.661,0,.927.133,1.188.731,4.167,8.735,8.4,17.736,12.375,26.534h.133c3.837-8.735,8.074-17.8,12.178-26.471.33-.527.527-.858,1.194-.858h10.653c.527,0,.731.4.4.927Zm21.776,10.786c0-15.417,10.259-27.462,26.534-27.462a29.179,29.179,0,0,1,3.443.133V593.524a.66.66,0,0,1,.661-.661h10.456c.527,0,.661.2.661.527v60.748a47.243,47.243,0,0,0,.33,6.486c0,.4-.134.527-.527.731a39.392,39.392,0,0,1-16.942,3.837c-14.363.057-24.622-8.8-24.616-26.807Zm29.971-16.936a9.947,9.947,0,0,0-3.837-.661c-8.341,0-14.16,6.416-14.16,17.075,0,12.178,5.959,17.075,13.435,17.075a12.407,12.407,0,0,0,4.567-.731V621.449Z" transform="translate(-437.044 -555.143)" fill="#ffd9f2"/></svg>