<svg xmlns="http://www.w3.org/2000/svg" width="178.871" height="103.82" viewBox="0 0 178.871 103.82"><path d="M180.171,128.67c-6.506,1.655-10.529.071-14.139-5.35-8.1-12.142-17.05-23.727-25.681-35.526-1.113-1.527-2.269-3.025-3.71-4.922-10.215,13.782-20.417,26.908-29.99,40.562-3.424,4.879-7.02,7.005-13.411,5.279l38.408-51.548L95.893,30.61c6.149-1.2,10.4-.585,14.168,4.922C118.379,47.688,127.553,59.259,136.7,71.5c9.2-12.2,18.262-23.784,26.823-35.826,3.438-4.879,7.134-6.734,13.312-4.937-4.68,6.206-9.26,12.313-13.868,18.377-6.221,8.175-12.327,16.45-18.776,24.454-2.3,2.853-1.926,4.708.128,7.4C156.245,96.654,168.03,112.491,180.171,128.67ZM1.343,76.309c1.027-5.151,1.712-10.4,3.139-15.452,8.56-30.575,43.658-43.288,67.771-24.34C86.377,47.631,89.887,63.3,89.188,80.96H9.575c-1.2,31.688,21.615,50.821,50.692,41.062,10.2-3.424,16.208-11.414,19.218-21.4,1.527-5.008,4.052-5.793,8.76-4.366-2.411,12.5-7.876,22.942-19.29,29.477-17.121,9.788-41.561,6.62-54.416-6.977C6.95,110.765,3.725,100.82,2.3,90.077c-.214-1.712-.656-3.4-1-5.093Q1.343,80.646,1.343,76.309Zm8.375-2.126H81.669C81.2,51.269,66.93,34.99,47.427,34.847,26.026,34.676,10.645,50.57,9.718,74.183Z" transform="translate(-1.3 -27.601)"/></svg>