<svg xmlns="http://www.w3.org/2000/svg" width="111.746" height="154.756" viewBox="0 0 111.746 154.756"><g transform="translate(-3.335 0)"><path d="M39.928,37.191,24.452,51.6,10.086,22.612,17.508,5.944c1.876-3.327,4.946-3.366,6.822,0Z" transform="translate(36.78 18.709)" fill="#ffa000"/><path d="M61.232,35.392,3.335,89.24,46.866,6.408Z" transform="translate(0 34.913)" fill="#f57f17"/><path d="M93.674,6.534c2.773-2.644,5.629-1.747,6.351,2L115.075,96.1,65.154,126.069c-1.754.98-6.4,1.361-6.4,1.361s-4.223-.516-5.842-1.406L3.336,96.827Z" transform="translate(0.005 27.326)" fill="#ffca28"/><path d="M46.861,41.321,3.336,124.153,22.732,3.077c.729-3.753,2.857-4.133,4.772-.812Z" transform="translate(0.005 0)" fill="#ffa000"/></g></svg>