<svg xmlns="http://www.w3.org/2000/svg" width="154.756" height="154.756" viewBox="0 0 154.756 154.756"><path d="M77.366,154.75A76.97,76.97,0,0,0,154.75,77.372,76.96,76.96,0,0,0,77.372-.006,76.959,76.959,0,0,0-.006,77.366,76.968,76.968,0,0,0,77.366,154.75ZM16.811,78.043,76.7,137.934A60.02,60.02,0,0,1,16.811,78.043ZM77.366,16.811a61.046,61.046,0,0,1,49.006,24.742l.116.161-8.744,7.4A49.422,49.422,0,0,0,76.96,27.579h-.574A48.759,48.759,0,0,0,30.371,60.207l-.1.342,63.25,63.257A47.91,47.91,0,0,0,124.47,88.811H98.226V77.372h39.7a60.666,60.666,0,0,1-47.1,59.214L18.159,63.915A60.654,60.654,0,0,1,77.366,16.811Z" transform="translate(0.006 0.006)" fill="#744c9e"/></svg>