<svg xmlns="http://www.w3.org/2000/svg" width="158.686" height="154.756" viewBox="0 0 158.686 154.756"><path d="M81.342,2.247a79.338,79.338,0,0,0-25.09,154.6c3.967.694,5.454-1.686,5.454-3.768,0-1.884-.1-8.132-.1-14.776-19.933,3.669-25.09-4.859-26.677-9.322A28.846,28.846,0,0,0,26.8,117.779c-2.777-1.488-6.744-5.157-.1-5.256a15.876,15.876,0,0,1,12.2,8.132A16.957,16.957,0,0,0,62,127.2a16.69,16.69,0,0,1,5.058-10.611c-17.652-1.983-36.1-8.826-36.1-39.172A30.876,30.876,0,0,1,39.1,56.1a28.511,28.511,0,0,1,.793-21.024s6.644-2.083,21.817,8.132a74.793,74.793,0,0,1,39.668,0c15.173-10.314,21.817-8.132,21.817-8.132a28.507,28.507,0,0,1,.793,21.024,30.7,30.7,0,0,1,8.132,21.321c0,30.445-18.545,37.188-36.2,39.172a18.788,18.788,0,0,1,5.355,14.677c0,10.611-.1,19.139-.1,21.817,0,2.083,1.488,4.562,5.454,3.768A79.377,79.377,0,0,0,81.342,2.247Z" transform="translate(-1.999 -2.247)"/></svg>