<svg xmlns="http://www.w3.org/2000/svg" width="154.756" height="154.756" viewBox="0 0 154.756 154.756"><path d="M32,32V186.756H186.756V32Zm82.905,120.212c0,15.065-8.9,22.409-21.78,22.409-11.634,0-18.388-6.024-21.814-13.3h0l11.842-7.168c2.283,4.052,4.017,7.479,9,7.479,4.145,0,7.551-1.869,7.551-9.14V103.851h15.2Zm34.319,22.063c-13.5,0-22.229-6.094-26.488-14.508h0L134.6,152.9c3.109,5.092,7.168,8.484,14.336,8.484,6.024,0,9.524-2.667,9.524-6.822,0-4.985-3.6-6.75-10.253-9.672l-3.634-1.561c-10.494-4.463-17.452-10.073-17.452-21.918,0-10.905,8.308-18.871,21.293-18.871,9.247,0,15.89,2.874,20.674,11.289l-11.344,7.292c-2.494-4.467-5.182-6.218-9.348-6.218-4.259,0-6.961,2.7-6.961,6.218,0,4.363,2.7,6.128,8.933,8.829L154,131.51c12.363,5.3,19.324,10.709,19.324,22.854C173.326,167.457,163.042,174.276,149.224,174.276Z" transform="translate(-32 -32)" fill="#e6c915"/></svg>