<svg xmlns="http://www.w3.org/2000/svg" width="154.756" height="154.756" viewBox="0 0 154.756 154.756"><path d="M72.311.042c-.333.03-1.392.136-2.345.212A77.565,77.565,0,0,0,14.356,32.319,76.586,76.586,0,0,0,.7,66.125,59.21,59.21,0,0,0,0,77.393,59.22,59.22,0,0,0,.7,88.662a77.691,77.691,0,0,0,52.932,62.513,81.787,81.787,0,0,0,16.338,3.388,142.678,142.678,0,0,0,14.825,0,78.14,78.14,0,0,0,27.88-8.153c1.331-.681,1.589-.862,1.407-1.014-.121-.091-5.794-7.7-12.6-16.9L89.1,111.789,73.6,88.844C65.064,76.228,58.045,65.913,57.985,65.913c-.061-.015-.121,10.179-.151,22.628-.045,21.8-.061,22.673-.333,23.187a2.748,2.748,0,0,1-1.331,1.376c-.484.242-.908.287-3.192.287H50.36l-.7-.438a2.83,2.83,0,0,1-1.014-1.1l-.318-.681.03-30.326L48.409,50.5l.469-.59A4.148,4.148,0,0,1,50,48.988c.62-.3.862-.333,3.479-.333,3.086,0,3.6.121,4.4,1,.227.242,8.623,12.887,18.668,28.119s23.781,36.029,30.528,46.238l12.254,18.559.62-.409a79.427,79.427,0,0,0,15.9-13.946,77.022,77.022,0,0,0,18.214-39.553,59.221,59.221,0,0,0,.7-11.269,59.21,59.21,0,0,0-.7-11.268A77.691,77.691,0,0,0,101.129,3.611,81.244,81.244,0,0,0,85.018.238C83.565.087,73.566-.079,72.311.042Zm31.677,46.8a3.051,3.051,0,0,1,1.528,1.785c.122.393.152,8.8.122,27.755l-.045,27.2-4.8-7.351-4.811-7.351V69.1c0-12.781.06-19.966.151-20.314a3.088,3.088,0,0,1,1.5-1.906c.62-.318.847-.348,3.222-.348C103.1,46.537,103.489,46.568,103.988,46.84Z" transform="translate(0 0)"/></svg>