<svg xmlns="http://www.w3.org/2000/svg" width="148.306" height="154.756" viewBox="0 0 148.306 154.756"><g transform="translate(-0.5)"><circle cx="0.013" cy="0.013" r="0.013" transform="translate(138.822 96.175)"/><path d="M22.837,14.727l.013.013v.006l-.019.006c-.935.342-1.709.484-2.36.774a2.889,2.889,0,0,0-1.515,1.367l-.006.013A8.374,8.374,0,0,0,18.3,21.2a3.178,3.178,0,0,0,.916.445l.026.006a17.539,17.539,0,0,0,4.952.522A32.87,32.87,0,0,0,35.92,19.918a25.039,25.039,0,0,0,6-3.966c-8.873,1.857-13.883,1.361-16.959.077A8.55,8.55,0,0,1,22.837,14.727Z" transform="translate(96.899 80.236)" fill="#32648d"/><path d="M17.58,4.151l.039.058.045.052Z" transform="translate(93.057 22.616)" fill="#32648d"/><path d="M69.579,116.261c-.006-.161,0-.329-.006-.49,0-.064-.006-.11-.006-.174Zm-6.8-28.456a4.146,4.146,0,0,0-1.283-.387h-.019v-.013h-.135c-.335.032-.825.148-1.78,1.212-2.218,2.515-2.992,4.095-4.823,5.571s-4.2,2.257-8.95,3.243a12,12,0,0,0-2.934.929,1.743,1.743,0,0,0,.445.342,10.559,10.559,0,0,0,2.308.916,21.969,21.969,0,0,0,8.886.516,15.19,15.19,0,0,0,10.233-6.706,3.365,3.365,0,0,0,.155-3.089A4.75,4.75,0,0,0,62.776,87.805ZM88.814,1.5l-.368.071c.123-.026.258-.039.38-.064C88.821,1.508,88.821,1.5,88.814,1.5ZM106.753,36.31c-4.327.058-6.751,1.186-8.028,2.663-1.806,2.1-1.973,5.771-.851,10.3a67.754,67.754,0,0,0,5.584,13.812c1.083,2.109,2.134,4,2.979,5.545a39.17,39.17,0,0,1,1.857,3.579,20.738,20.738,0,0,0,1.135,2.334,21.973,21.973,0,0,0,1.806-10.756c-.219-4.533-1.264-9.169-1.109-13.864.174-5.487,1.245-9.06,1.335-13.3A35.465,35.465,0,0,0,106.753,36.31Zm.8,3.263-.006.052v.064a1.514,1.514,0,0,1-.232.812l.006-.006a4.333,4.333,0,0,1-.7.967,4.259,4.259,0,0,1-2.431,1.361l-.026.006a3.277,3.277,0,0,1-.451.026,3.715,3.715,0,0,1-2.173-.7l.013.006a3.826,3.826,0,0,1-.819-.754l-.006-.006a1.673,1.673,0,0,1-.4-.806v-.013c0-.032-.006-.064-.006-.1a1.088,1.088,0,0,1,.277-.729,2.364,2.364,0,0,1,.735-.574l.013-.006a7.042,7.042,0,0,1,2.373-.748,8.13,8.13,0,0,1,1.019-.084v.019h.316a5.585,5.585,0,0,1,1.148.142,2.578,2.578,0,0,1,.877.355,1.106,1.106,0,0,1,.477.709ZM35.791,64.727a22.9,22.9,0,0,1,.258-3.411l-.013.123A80.823,80.823,0,0,0,36.706,48.7c-.077-3.43-.322-5.713-.322-7.138V41.4l-.006-.039v-.039A64.385,64.385,0,0,1,40.15,19.583,37.354,37.354,0,0,1,48.571,5.971,71.418,71.418,0,0,0,30.2,2.308c-.722-.039-1.567-.064-2.412-.064h-.006V2.25c-.806,0-1.619.026-2.418.071C18.928,2.695,12.841,4.584,8.5,9.253s-7.228,12.323-6.6,24.993a138.343,138.343,0,0,0,2.921,17.1,216.18,216.18,0,0,0,7.274,25.677c3.011,8.3,6.661,15.521,10.13,18.938,1.747,1.709,3.263,2.4,4.636,2.341s3.044-.871,5.075-3.34C35.92,90.1,39.692,85.8,43.587,81.621l-.129.135A22.642,22.642,0,0,1,35.791,64.727Z" transform="translate(7.12 8.183)" fill="#32648d"/><path d="M37.082,1.579V1.566c-7.532.019-12.929,2.321-17.03,5.771a31.975,31.975,0,0,0-8.918,13.445A57.736,57.736,0,0,0,7.865,36.348l.084-.052a32.8,32.8,0,0,1,8.46-3.327,16.471,16.471,0,0,1,9.763.251c3.121,1.225,5.7,4.108,6.635,8.479,4.482,21-1.393,28.811-3.559,34.7a54.658,54.658,0,0,0-2.005,6.1l-.1.432a6.151,6.151,0,0,1,.819-.168,6.874,6.874,0,0,1,3.437.7,8.42,8.42,0,0,1,4.482,5.03,8.848,8.848,0,0,1,.451,1.831,2.106,2.106,0,0,1,.129.742v.077c-.1,3.224-.168,7.009-.168,10.814q0,6.761.258,13.464c.148,3.392.361,6.4.625,8.763a25.373,25.373,0,0,0,.909,4.856,16.368,16.368,0,0,0,4.159,6.6c2.154,1.831,5.242,3.056,10.885,1.831,4.894-1.064,7.912-2.541,9.93-4.662s3.218-5.075,3.985-9.595c1.154-6.771,3.469-26.406,3.753-30.1a12.426,12.426,0,0,1,1.161-6.558A7.578,7.578,0,0,1,75.468,83.3a11.953,11.953,0,0,1,1.638-.6c-.567-.819-1.077-1.5-1.606-2.167l.058.071a28.732,28.732,0,0,1-4.172-6.9l-.071-.187c-.651-1.348-1.2-2.366-1.773-3.366l.135.251c-.845-1.548-1.915-3.482-3.037-5.655a70.779,70.779,0,0,1-5.952-14.766c-1.264-5.133-1.444-10.446,1.793-14.193,2.863-3.327,7.9-4.707,15.45-3.933a21.417,21.417,0,0,0-.735-2.141,50.761,50.761,0,0,0-6.674-11.426C64.119,10.026,53.77,1.843,37.791,1.579h-.709ZM32.091,98.934v.226h0Z" transform="translate(40.127 8.532)" fill="#32648d"/><path d="M7.851,7.792l.013-.006.019-.019Z" transform="translate(40.051 42.311)" fill="#32648d"/><path d="M9.321,7.115l.064-.006.052-.019Z" transform="translate(48.06 38.623)" fill="#32648d"/><path d="M10.058,7.391h-.013Z" transform="translate(52.004 40.268)" fill="#32648d"/><path d="M25.925,45.2c2.586-7.054,7.673-12.2,3.392-32.28-.7-3.289-2.089-4.617-4-5.365a9.152,9.152,0,0,0-3.134-.542h-.206a17.549,17.549,0,0,0-3.979.5A29.726,29.726,0,0,0,10.688,10.4a15.392,15.392,0,0,0-2.218,1.47l-.123.116c.039.941.219,3.224.3,6.584a85.243,85.243,0,0,1-.716,13.438C6.407,43.035,14.312,52.166,23.6,52.178A65.528,65.528,0,0,1,25.925,45.2ZM20.438,13.16h0a4.384,4.384,0,0,1-.748-1.038l-.013-.026a1.81,1.81,0,0,1-.264-.954c0-.064.006-.129.013-.193v.006A1.644,1.644,0,0,1,20.638,9.7a5.385,5.385,0,0,1,1.683-.264c.09,0,.181,0,.284.006L22.6,9.414a7.6,7.6,0,0,1,1.058.084,6.885,6.885,0,0,1,2.5.787,2.89,2.89,0,0,1,.838.677l.006.006a1.428,1.428,0,0,1,.348.948,1.242,1.242,0,0,1-.006.155v-.006a1.991,1.991,0,0,1-.477.993,4.377,4.377,0,0,1-.9.832l-.013.006a3.978,3.978,0,0,1-2.354.761,4.522,4.522,0,0,1-.516-.032h.019A4.611,4.611,0,0,1,20.438,13.16Z" transform="translate(39.445 38.219)" fill="#32648d"/><path d="M8.177,41.552c.045-.026.09-.039.129-.064.006,0,.013-.006.019-.013ZM72.26,17.062a54.179,54.179,0,0,1,7.074,12.026l.135.355A29.2,29.2,0,0,1,80.907,33.7a8.838,8.838,0,0,1,.258,1.522,2.837,2.837,0,0,1-.077.929c0,.019-.032.064-.039.084.193,5.649-1.193,9.479-1.354,14.87-.129,3.908.858,8.5,1.1,13.509a25.791,25.791,0,0,1-3.353,14.953c.258.31.484.619.729.929A141.71,141.71,0,0,0,94.99,41.656a76.786,76.786,0,0,0,2.592-16.972c.064-4.643-.793-8.009-1.876-9.414C87.155,4.2,75.593,1.386,65.9,1.309v.006h-.929A55.2,55.2,0,0,0,54.127,2.56,47.9,47.9,0,0,1,72.26,17.062Z" transform="translate(41.827 7.132)" fill="#32648d"/><path d="M78.273,1.664h-.064A36.061,36.061,0,0,0,59.057,6.448c-5.12-1.8-15.74-4.9-26.941-4.282C24.321,2.6,15.809,5,9.5,11.736,3.216,18.474-.105,28.9.591,43.087c.193,3.914,1.3,10.3,3.121,18.564a221.146,221.146,0,0,0,7.6,26.773c3.2,8.834,6.713,16.765,12.2,22.156,2.741,2.7,6.513,4.972,10.956,4.785a13.981,13.981,0,0,0,8.376-3.559,10.072,10.072,0,0,0,3.6,2.908,17.328,17.328,0,0,0,4.327,1.715,29.729,29.729,0,0,0,12.406.645,23.153,23.153,0,0,0,5.571-1.741c.071,2.128.155,4.211.232,6.319.264,6.68.426,12.851,2.405,18.261a23.939,23.939,0,0,0,4.63,9.453c3.437,4.024,10.182,6.532,17.855,4.868,5.417-1.174,12.3-3.289,16.875-9.879,4.52-6.513,6.558-15.856,6.964-31.01.1-.819.226-1.515.348-2.167l1.077.1h.129a37.429,37.429,0,0,0,17.281-3.031c4.636-2.173,8.144-4.372,10.7-8.273a8.345,8.345,0,0,0,1.528-4.146,8.455,8.455,0,0,0-2.844-6.609c-3.792-2.915-6.171-1.806-8.724-1.27a38.235,38.235,0,0,1-7.6.941h-.052A149.267,149.267,0,0,0,145.219,51.2a82.642,82.642,0,0,0,2.863-19c.084-5.616-.368-10.588-3.695-14.889C134,3.869,119.393.155,108.09.026c-.348-.006-.7-.013-1.051-.006V0A64.086,64.086,0,0,0,89.364,2.637l-.264.09A66.807,66.807,0,0,0,78.273,1.664ZM93.549,5.771A58.848,58.848,0,0,1,106.7,4.153h.039l.006-.026c10.691-.1,24.342,2.934,34.15,15.618,2.205,2.85,2.863,7.016,2.786,12.148a80.219,80.219,0,0,1-2.734,17.991A145.557,145.557,0,0,1,122.5,91.72a4.6,4.6,0,0,0,.974.542l.032.013c1.844.774,6.055,1.438,14.457-.31,2.115-.451,3.663-.754,5.268.484a3.355,3.355,0,0,1,1.174,2.56c0,.064,0,.129-.006.193V95.2a4.572,4.572,0,0,1-.832,2.167c-1.625,2.47-4.83,4.81-8.931,6.738a34.8,34.8,0,0,1-13.477,2.663,20.413,20.413,0,0,1-6.274-.729l-.116-.045c-.7,6.835-2.315,20.331-3.366,26.489-.838,4.965-2.308,8.911-5.12,11.865s-6.771,4.733-12.11,5.894c-6.609,1.438-11.433-.11-14.541-2.76a20.208,20.208,0,0,1-5.378-8.3,24.634,24.634,0,0,1-1.186-5.971c-.3-2.566-.509-5.707-.658-9.247-.142-3.6-.219-7.828-.219-12.078,0-1.4.013-2.792.026-4.191a19.3,19.3,0,0,1-9.769,4.881l-.116.019a25.784,25.784,0,0,1-10.646-.58,14.2,14.2,0,0,1-3.347-1.315,6.113,6.113,0,0,1-2.773-2.541,3.631,3.631,0,0,1-.432-1.728,3.425,3.425,0,0,1,.077-.735,3.953,3.953,0,0,1,1.38-2.115l.006-.006a12.216,12.216,0,0,1,5.449-2.147c4.578-.954,6.177-1.606,7.151-2.386a39.23,39.23,0,0,0,3.418-4.011c-.006-.058-.013-.155-.019-.245v-.019a18.542,18.542,0,0,1-8.57-2.36l.1.052c-.954,1.019-5.836,6.242-11.781,13.49-2.5,3.031-5.268,4.772-8.183,4.894s-5.552-1.361-7.8-3.559C21.877,102.875,18.3,95.3,15.19,86.735A217.419,217.419,0,0,1,7.755,60.51,130.355,130.355,0,0,1,4.737,42.674C4.067,29.249,7.168,20.2,12.488,14.5s12.626-7.867,19.738-8.28C45,5.475,57.123,9.982,59.58,10.949A30.914,30.914,0,0,1,78.009,5.8,46.843,46.843,0,0,1,89.042,7.28l-.322-.071.129-.058a38.591,38.591,0,0,1,4.417-1.322Z" transform="translate(0)"/></g></svg>