<svg xmlns="http://www.w3.org/2000/svg" width="173.305" height="154.756" viewBox="0 0 173.305 154.756"><g transform="translate(-1.4 -8.1)"><circle cx="15.78" cy="15.78" r="15.78" transform="translate(72.272 69.698)" fill="#61dafb"/><path d="M147.99,59.455c-3.045-1.107-6.229-2.215-9.551-3.184.831-3.322,1.523-6.644,2.076-9.828,2.907-18.272-.277-31.145-9.136-36.128A17.2,17.2,0,0,0,122.52,8.1c-9.69,0-22.009,7.2-34.467,19.241C75.594,15.3,63.275,8.1,53.585,8.1a17.2,17.2,0,0,0-8.859,2.215C35.867,15.436,32.683,28.31,35.59,46.443c.554,3.184,1.246,6.506,2.076,9.828a96.532,96.532,0,0,0-9.551,3.184C10.813,66.1,1.4,75.235,1.4,85.478s9.551,19.379,26.716,26.023c3.045,1.107,6.229,2.215,9.551,3.184-.831,3.322-1.523,6.644-2.076,9.828-2.907,18.272.277,31.145,9.136,36.128a17.2,17.2,0,0,0,8.859,2.215c9.828,0,22.148-7.2,34.467-19.241,12.458,12.043,24.778,19.241,34.467,19.241a17.2,17.2,0,0,0,8.859-2.215c8.859-5.122,12.043-17.995,9.136-36.128-.554-3.184-1.246-6.506-2.076-9.828a96.528,96.528,0,0,0,9.551-3.184c17.3-6.644,26.716-15.78,26.716-26.023S165.292,66.1,147.99,59.455ZM127.5,17.236c5.675,3.322,7.613,13.565,5.26,28.1a83.353,83.353,0,0,1-1.938,9.136,164.452,164.452,0,0,0-22.84-3.461,199.721,199.721,0,0,0-14.4-17.995c10.243-10.1,20.625-17.026,29.069-17.026a9.351,9.351,0,0,1,4.845,1.246ZM112,99.32c-2.492,4.43-5.4,8.859-8.444,13.289-5.122.415-10.243.554-15.5.554-5.4,0-10.52-.138-15.5-.554q-4.568-6.644-8.305-13.289c-2.63-4.568-5.122-9.274-7.336-13.842,2.215-4.568,4.706-9.274,7.336-13.842,2.492-4.43,5.4-8.859,8.444-13.289,5.122-.415,10.243-.554,15.5-.554,5.4,0,10.52.138,15.5.554q4.568,6.644,8.305,13.289c2.63,4.568,5.122,9.274,7.336,13.842C116.983,90.046,114.63,94.614,112,99.32Zm11.489-4.568c2.076,4.845,3.737,9.551,5.26,14.258-4.706,1.107-9.69,1.938-14.95,2.63,1.661-2.63,3.461-5.4,4.983-8.305,1.661-2.907,3.184-5.814,4.706-8.582ZM88.053,132.265c-3.322-3.6-6.506-7.475-9.551-11.489,3.184.138,6.367.277,9.551.277s6.367-.138,9.551-.277C94.558,124.79,91.375,128.666,88.053,132.265ZM62.306,111.5c-5.26-.692-10.243-1.523-14.95-2.63,1.523-4.568,3.184-9.413,5.26-14.258,1.523,2.768,3.045,5.675,4.706,8.444,1.661,3.045,3.322,5.675,4.983,8.444Zm-9.69-35.3c-2.076-4.845-3.737-9.551-5.26-14.258,4.706-1.107,9.69-1.938,14.95-2.63-1.661,2.63-3.461,5.4-4.983,8.305C55.662,70.529,54.139,73.435,52.616,76.2ZM88.053,38.691c3.322,3.6,6.506,7.475,9.551,11.489-3.184-.138-6.367-.277-9.551-.277s-6.367.138-9.551.277c3.045-4.014,6.229-7.89,9.551-11.489Zm30.73,29.069L113.8,59.455c5.26.692,10.243,1.523,14.95,2.63-1.523,4.568-3.184,9.413-5.26,14.258C121.966,73.435,120.443,70.529,118.782,67.76ZM43.342,45.336c-2.353-14.534-.415-24.778,5.26-28.1a9.351,9.351,0,0,1,4.845-1.246c8.305,0,18.687,6.783,29.069,17.026a181.962,181.962,0,0,0-14.4,17.995,188.2,188.2,0,0,0-22.84,3.461c-.831-3.184-1.384-6.229-1.938-9.136ZM9.152,85.478c0-6.506,7.89-13.427,21.732-18.549a83,83,0,0,1,8.859-2.907,201.76,201.76,0,0,0,8.305,21.594,174.428,174.428,0,0,0-8.305,21.455C20.641,101.535,9.152,93.23,9.152,85.478ZM48.6,153.721c-5.675-3.322-7.613-13.565-5.26-28.1a83.353,83.353,0,0,1,1.938-9.136,164.454,164.454,0,0,0,22.84,3.461,199.724,199.724,0,0,0,14.4,17.995c-10.243,10.1-20.625,17.026-29.069,17.026a9.351,9.351,0,0,1-4.845-1.246Zm84.161-28.1c2.353,14.534.415,24.778-5.26,28.1a9.351,9.351,0,0,1-4.845,1.246c-8.305,0-18.687-6.783-29.069-17.026a181.961,181.961,0,0,0,14.4-17.995,188.2,188.2,0,0,0,22.84-3.461C131.656,119.669,132.209,122.714,132.763,125.621Zm12.458-21.594a82.992,82.992,0,0,1-8.859,2.907,201.76,201.76,0,0,0-8.305-21.594,174.427,174.427,0,0,0,8.305-21.456c19.1,5.537,30.591,13.842,30.591,21.594C166.953,91.984,158.925,98.905,145.221,104.027Z" transform="translate(0 0)" fill="#61dafb"/></g></svg>