<svg xmlns="http://www.w3.org/2000/svg" width="154.756" height="154.756" viewBox="0 0 154.756 154.756"><path d="M0,77.378v77.378H154.756V0H0Zm93.9,49.174c.7-.393,3.3-1.9,5.752-3.321l4.449-2.579.935,1.38a20.79,20.79,0,0,0,5.868,5.623c4.939,2.605,11.716,2.238,15.056-.761a5.677,5.677,0,0,0,2.025-4.353c0-.1,0-.2-.006-.3v.013a5.679,5.679,0,0,0-1.161-3.933c-1.2-1.715-3.656-3.16-10.633-6.19-7.983-3.437-11.42-5.571-14.566-8.963a20.327,20.327,0,0,1-4.211-7.6l-.039-.142a31.125,31.125,0,0,1-.271-9.872c1.644-7.718,7.467-13.09,15.869-14.689a39.169,39.169,0,0,1,11.742.342v.006a19.241,19.241,0,0,1,9.679,5.578,25.016,25.016,0,0,1,3.708,4.965c.052.193-6.68,4.707-10.756,7.241-.148.1-.742-.542-1.4-1.522-2-2.9-4.082-4.153-7.274-4.372-4.694-.322-7.712,2.134-7.686,6.235,0,.071-.006.155-.006.239a5.639,5.639,0,0,0,.677,2.689l-.013-.032c1.032,2.134,2.953,3.418,8.963,6.016,11.084,4.772,15.824,7.912,18.771,12.38,3.289,4.984,4.03,12.948,1.793,18.867-2.45,6.435-8.544,10.807-17.12,12.252a47.221,47.221,0,0,1-11.787-.116c-6.216-1.109-12.11-4.178-15.746-8.209-1.425-1.567-4.2-5.674-4.03-5.965A10.193,10.193,0,0,1,93.9,126.552ZM33.9,77.8a61.847,61.847,0,0,1,.168-6.384c.077-.1,12.335-.155,27.192-.129l27.05.077.071,6.313.052,6.339H68.286v57.234H54.036V84.013H33.9Z" fill="#1677c7"/></svg>