<svg xmlns="http://www.w3.org/2000/svg" width="66.714" height="50.043" viewBox="0 0 66.714 50.043"><path d="M66.279,75.05c0-5.864-4.313-10.582-9.643-10.582C49.416,64.13,42.053,64,34.529,64H32.183c-7.506,0-14.882.13-22.1.469-5.317,0-9.63,4.744-9.63,10.608-.326,4.638-.464,9.277-.456,13.917q-.02,6.959.443,13.931c0,5.864,4.313,10.621,9.63,10.621,7.584.352,15.364.508,23.275.5q11.885.039,23.275-.5c5.33,0,9.643-4.757,9.643-10.621.313-4.652.456-9.292.443-13.944Q66.748,82.021,66.279,75.05ZM26.97,101.778V76.17l18.9,12.8Z" transform="translate(0.006 -64)" fill="#f70000"/></svg>