<svg xmlns="http://www.w3.org/2000/svg" width="63.275" height="63.274" viewBox="0 0 63.275 63.274"><path d="M90.214,32H37.407A5.161,5.161,0,0,0,32,36.928V89.852a5.567,5.567,0,0,0,5.407,5.422H90.2a5.285,5.285,0,0,0,5.076-5.422V36.928A4.851,4.851,0,0,0,90.214,32Zm-38.6,52.742H42.549V56.558h9.065ZM47.395,52.273H47.33a4.928,4.928,0,1,1,.065,0ZM84.742,84.742H75.678V69.332c0-3.692-1.319-6.214-4.6-6.214a4.956,4.956,0,0,0-4.648,3.346,6.106,6.106,0,0,0-.314,2.226V84.742H57.053V56.558h9.065v3.922C67.437,58.6,69.5,55.9,74.292,55.9c5.95,0,10.452,3.922,10.452,12.378Z" transform="translate(-32 -32)" fill="#0a66c2"/></svg>