<svg xmlns="http://www.w3.org/2000/svg" xmlns:xlink="http://www.w3.org/1999/xlink" width="62.607" height="62.607" viewBox="0 0 62.607 62.607"><defs><linearGradient id="a" x1="0.215" y1="1" x2="0.872" y2="0.39" gradientUnits="objectBoundingBox"><stop offset="0" stop-color="#f1c501"/><stop offset="0.508" stop-color="#e70521"/><stop offset="1" stop-color="#7b37ad"/></linearGradient></defs><g transform="translate(-32 -32)"><path d="M76.346,37.217A13.083,13.083,0,0,1,89.391,50.261V76.346A13.083,13.083,0,0,1,76.346,89.391H50.261A13.083,13.083,0,0,1,37.217,76.346V50.261A13.083,13.083,0,0,1,50.261,37.217H76.346m0-5.217H50.261A18.314,18.314,0,0,0,32,50.261V76.346A18.314,18.314,0,0,0,50.261,94.607H76.346A18.314,18.314,0,0,0,94.607,76.346V50.261A18.314,18.314,0,0,0,76.346,32Z" fill="url(#a)"/><path d="M353.243,114.5a3.9,3.9,0,1,1,2.769-1.144A3.913,3.913,0,0,1,353.243,114.5Z" transform="translate(-272.984 -64.235)" fill="url(#a)"/><path d="M159.652,149.217a10.435,10.435,0,1,1-10.435,10.435,10.435,10.435,0,0,1,10.435-10.435m0-5.217A15.652,15.652,0,1,0,175.3,159.652,15.652,15.652,0,0,0,159.652,144Z" transform="translate(-96.348 -96.348)" fill="url(#a)"/></g></svg>